<svg width="228" height="192" viewBox="0 0 228 192" fill="none" xmlns="http://www.w3.org/2000/svg">
<path d="M30.002 0C13.4336 0.000229097 0.00200927 13.4316 0.00195312 30V132.461C0.00195312 149.029 13.4336 162.461 30.002 162.461H183.313C183.924 162.461 184.501 162.742 184.885 163.217C194.369 174.945 206.266 183.815 222.4 191.424C224.253 192.298 225.999 190.104 224.822 188.428C219.272 180.525 213.836 171.471 209.784 161.773C209.368 160.777 209.843 159.645 210.802 159.151C220.477 154.172 227.094 144.09 227.094 132.461V30C227.094 13.4315 213.662 0 197.094 0H30.002Z" fill="white"/>
</svg>
