<svg width="228" height="192" viewBox="0 0 228 192" fill="none" xmlns="http://www.w3.org/2000/svg">
<path d="M197.092 0C213.66 6.21256e-05 227.092 13.4315 227.092 30V132.461C227.092 149.029 213.66 162.461 197.092 162.461H43.782C43.1708 162.461 42.5938 162.742 42.2095 163.217C32.7255 174.945 20.829 183.814 4.69464 191.423C2.84212 192.297 1.09531 190.103 2.27247 188.427C7.82277 180.524 13.2574 171.47 17.3099 161.772C17.7259 160.776 17.2508 159.644 16.2914 159.15C6.61749 154.171 0 144.09 0 132.461V30C0 13.4315 13.4315 0 30 0H197.092Z" fill="white"/>
</svg>
