<svg width="21" height="23" viewBox="0 0 21 23" fill="none" xmlns="http://www.w3.org/2000/svg">
<path d="M20.4353 20.4353V4.54117C20.4353 3.28894 19.4169 2.27058 18.1647 2.27058H15.8941V0H13.6235V2.27058H6.81176V0H4.54117V2.27058H2.27059C1.01836 2.27058 0 3.28894 0 4.54117V20.4353C0 21.6875 1.01836 22.7058 2.27059 22.7058H18.1647C19.4169 22.7058 20.4353 21.6875 20.4353 20.4353ZM6.81176 18.1647H4.54117V15.8941H6.81176V18.1647ZM6.81176 13.6235H4.54117V11.3529H6.81176V13.6235ZM11.3529 18.1647H9.08234V15.8941H11.3529V18.1647ZM11.3529 13.6235H9.08234V11.3529H11.3529V13.6235ZM15.8941 18.1647H13.6235V15.8941H15.8941V18.1647ZM15.8941 13.6235H13.6235V11.3529H15.8941V13.6235ZM18.1647 7.94705H2.27059V5.67646H18.1647V7.94705Z" fill="#FFBC67"/>
</svg>
