<svg width="54" height="54" viewBox="0 0 54 54" fill="none" xmlns="http://www.w3.org/2000/svg">
<g clip-path="url(#clip0_2311_2676)">
<rect width="53.9568" height="53.9568" rx="3.23741" fill="#E9E9E9"/>
<circle cx="26.4383" cy="24.2811" r="9.17266" fill="#ACACAC"/>
<path d="M46.4027 55.5754C46.4027 52.9536 45.8863 50.3576 44.883 47.9355C43.8797 45.5133 42.4092 43.3125 40.5553 41.4587C38.7015 39.6048 36.5007 38.1343 34.0785 37.131C31.6564 36.1277 29.0604 35.6113 26.4386 35.6113C23.8169 35.6113 21.2209 36.1277 18.7987 37.131C16.3766 38.1343 14.1758 39.6048 12.3219 41.4587C10.4681 43.3125 8.99757 45.5133 7.99428 47.9355C6.99099 50.3576 6.47461 52.9536 6.47461 55.5754L26.4386 55.5754H46.4027Z" fill="#ACACAC"/>
</g>
<defs>
<clipPath id="clip0_2311_2676">
<rect width="53.9568" height="53.9568" rx="3.23741" fill="white"/>
</clipPath>
</defs>
</svg>
