<svg width="36" height="36" viewBox="0 0 36 36" fill="none" xmlns="http://www.w3.org/2000/svg">
<rect width="36" height="36" rx="18" fill="#FFBC67"/>
<rect x="6" y="6" width="24" height="24" rx="12" fill="#FFBC67"/>
<path d="M19.253 11.98L18 19.5L16.747 11.98C16.7169 11.7982 16.7268 11.612 16.7759 11.4344C16.8251 11.2567 16.9123 11.0919 17.0315 10.9514C17.1507 10.8108 17.2991 10.6979 17.4663 10.6205C17.6336 10.543 17.8157 10.5029 18 10.5029C18.1843 10.5029 18.3664 10.543 18.5336 10.6205C18.7009 10.6979 18.8492 10.8108 18.9685 10.9514C19.0877 11.0919 19.1749 11.2567 19.224 11.4344C19.2732 11.612 19.283 11.7982 19.253 11.98Z" stroke="#313131" stroke-width="3" stroke-linecap="round" stroke-linejoin="round"/>
<path d="M18 26C18.5523 26 19 25.5523 19 25C19 24.4477 18.5523 24 18 24C17.4477 24 17 24.4477 17 25C17 25.5523 17.4477 26 18 26Z" stroke="black" stroke-width="2"/>
</svg>
